<svg width="512" height="760" viewBox="0 0 512 760" fill="none" xmlns="http://www.w3.org/2000/svg">
<path d="M461.143 308.157C459.66 301.032 460.61 293.907 459.518 286.741C457.152 271.307 455.21 255.807 453.168 240.324C452.185 232.816 451.552 225.257 450.452 217.774C448.818 206.566 446.918 195.391 445.127 184.207C443.752 175.574 443.193 166.707 440.785 158.374C436.902 144.982 433.427 131.466 429.202 118.149C424.293 102.641 421.377 97.1657 408.36 86.7657C406.043 84.9157 403.585 83.2824 400.285 83.8241C393.385 84.9658 388.285 81.8158 383.593 77.0991C380.343 73.8241 376.293 71.4658 371.56 70.8574C365.51 70.0824 359.418 69.6157 353.368 68.8157C344.093 67.5991 334.368 68.2074 325.677 64.4658C317.368 60.8991 308.827 60.3241 300.127 59.8658C296.668 59.6908 293.152 60.1658 289.802 58.8491C273.235 52.3408 255.885 53.9991 238.685 53.7991C232.352 53.7157 226.093 53.8491 220.085 56.0324C215.643 57.6408 211.093 57.9824 206.427 57.8658C201.452 57.7491 196.602 58.8658 191.702 59.5408C185.568 60.3824 179.402 61.7324 173.268 61.6657C166.235 61.5991 159.752 62.5741 153.327 65.4991C150.902 66.5991 147.768 67.0074 145.143 67.6158C141.043 68.5658 136.527 69.4574 132.552 72.3574C125.143 77.7491 117.593 83.4741 107.677 83.9491C104.052 84.1241 100.393 86.1074 99.335 89.3491C97.785 94.0241 93.3683 96.4074 90.4767 97.0574C86.06 98.0574 83.4683 100.782 80.6267 103.166C74.735 108.099 68.6267 113.132 69.685 122.399C70.0017 125.149 68.6766 128.174 67.7433 130.949C61.5016 149.341 56.61 168.057 58.0266 187.624C58.76 197.732 55.8017 207.299 56.4433 217.541C58.6017 251.807 54.8183 286.241 58.6933 320.549C59.46 327.341 59.6266 334.391 57.1516 341.216C55.2433 346.466 58.935 351.416 58.9183 356.716C58.8267 391.707 58.8933 426.716 58.9433 461.707C58.9516 463.849 58.7766 465.966 59.435 468.124C62.3516 477.732 61.4183 487.674 60.235 497.232C59.6016 502.291 58.1183 507.566 59.2016 512.324C60.5266 518.124 59.2516 523.799 59.3183 529.357C59.4183 538.132 60.9683 547.041 59.0517 555.891C57.6933 562.149 60.8517 568.232 60.735 574.399C60.5267 585.382 61.4433 596.299 62.1017 607.216C62.31 610.741 62.2683 614.574 64.1516 618.182C67.5516 624.707 70.11 631.674 73.8517 638.057C74.635 639.382 75.2767 640.857 74.7767 642.307C73.71 645.407 75.4017 647.291 77.3933 649.116C87.1517 658.049 98.1683 665.324 108.818 673.107C114.268 677.082 119.552 681.532 126.393 682.716C136.293 684.441 144.86 690.591 155.21 690.824C162.26 690.982 167.593 696.241 175.227 696.874C186.118 697.774 197.143 698.832 208.077 700.132C217.102 701.207 226.127 702.432 235.193 702.941C242.918 703.382 250.618 704.832 258.435 703.849C266.852 702.799 275.293 702.074 283.727 701.141C293.227 700.091 302.768 699.357 312.185 697.824C328.11 695.224 344.168 693.591 360.077 691.024C366.96 689.924 374.193 689.874 380.477 685.966C389.968 680.057 399.693 674.507 409.027 668.366C411.21 666.932 413.602 665.349 415.235 662.866C421.102 653.949 427.293 645.232 433.227 636.349C434.993 633.682 437.085 631.399 437.368 627.624C437.885 620.949 439.36 614.324 440.827 607.766C442.893 598.516 445.243 589.116 446.485 579.924C448.402 565.899 451.968 552.141 453.152 537.991C454.052 527.166 455.81 516.407 457.177 505.624C458.452 495.599 459.777 485.582 460.952 475.549C461.793 468.307 462.193 461.007 463.26 453.807C463.752 450.482 460.785 448.266 461.26 445.332C463.093 433.974 462.602 422.624 462.452 411.157C462.21 391.674 460.16 372.257 461.01 352.724C461.66 337.891 461.143 323.016 461.143 308.157ZM235.868 5.78245C252.543 6.84078 269.202 8.32409 285.885 8.72409C291.435 8.84909 297.052 8.92411 302.627 9.04077C322.777 9.48244 342.543 12.3324 362.068 17.5241C370.052 19.6491 378.268 21.0908 386.327 23.0658C388.327 23.5491 390.135 24.0324 391.643 25.3741C394.252 27.6824 396.86 29.4491 400.735 29.3074C403.51 29.1991 404.81 32.5074 407.535 33.7491C417.118 38.1074 426.593 42.2408 437.027 44.3241C443.393 45.5991 447.66 50.5074 451.427 55.8074C455.152 61.0574 458.393 66.6158 462.327 71.7741C467.302 78.3074 470.118 86.4824 475.035 93.0908C478.618 97.9158 478.86 103.982 482.527 108.524C483.11 109.249 483.468 110.332 483.527 111.274C484.435 125.341 491.343 137.807 494.177 151.374C495.143 155.999 494.668 160.816 498.393 165.199C500.568 167.774 498.485 173.132 499.627 177.382C502.327 187.499 504.202 197.832 506.377 208.091C506.643 209.374 506.827 210.707 506.818 212.007C506.727 226.599 508.535 241.099 509.143 255.657C509.443 262.932 509.543 270.216 509.852 277.499C511.76 322.424 510.718 367.366 510.735 412.307C510.735 429.032 510.085 445.799 508.643 462.449C507.493 475.757 507.91 489.024 507.977 502.291C508.043 514.599 507.777 526.966 506.46 539.082C505.26 550.257 503.402 561.482 501.552 572.641C500.518 578.807 498.802 585.091 499.243 591.199C500.16 603.782 495.793 615.507 494.318 627.666C493.61 633.516 491.635 639.716 488.36 645.457C482.143 656.324 477.552 668.157 470.468 678.557C464.168 687.824 458.585 697.682 450.818 705.841C446.26 710.624 439.535 712.399 434.143 716.149C424.552 722.832 412.777 724.182 402.293 728.774C394.593 732.132 386.093 733.491 378.252 736.682C369.652 740.182 360.452 741.266 351.402 742.799C335.035 745.566 318.768 749.049 302.01 749.116C293.377 749.157 284.735 749.749 276.118 748.982C271.752 748.607 267.568 749.849 263.277 749.849C241.968 749.841 220.652 750.099 199.343 749.774C180.527 749.482 161.91 746.874 143.818 741.666C125.752 736.457 107.868 730.424 91.235 721.557C77.3433 714.157 62.7183 707.966 50.1016 698.282C46.235 695.324 42.5433 692.116 38.7516 689.041C34.5683 685.641 34.3766 680.332 32.6933 675.824C27.61 662.149 24.6183 647.874 20.96 633.774C18.9683 626.099 18.7183 618.216 17.185 610.499C13.51 592.057 14.2183 573.366 14.1267 554.724C14.0933 546.691 11.81 538.549 11.8933 530.957C12.0433 517.674 8.78498 504.324 11.91 490.999C12.7683 487.366 12.0933 483.366 12.1433 479.532C12.3183 466.657 12.5016 453.757 11.1016 440.916C10.2683 433.207 8.11833 425.374 9.32666 417.782C12.9267 395.149 11.235 372.432 10.7016 349.824C10.2016 328.266 8.92664 306.716 9.13498 285.116C9.19331 278.816 10.7183 272.616 10.1683 266.282C9.94331 263.666 10.135 261.074 9.25997 258.466C8.2433 255.416 8.085 252.599 9.72667 249.124C11.6683 244.999 10.035 239.932 8.79331 235.524C7.14331 229.632 7.22664 224.091 8.9683 218.207C11.5016 209.632 12.01 200.716 12.16 191.782C12.535 169.299 15.0517 147.082 20.3767 125.182C22.9433 114.666 24.6183 103.941 27.2267 93.4408C28.8267 87.0241 31.035 80.4991 35.06 75.2324C41.7016 66.5574 47.1016 56.5407 56.4766 50.4074C66.885 43.6074 77.6683 37.3241 88.6767 31.5407C94.01 28.7407 100.502 29.1241 106.477 28.2408C115.852 26.8658 124.593 23.3824 133.127 19.8241C144.185 15.2241 155.493 12.7491 167.235 10.9491C180.293 8.94907 193.435 8.24076 206.535 7.44076C216.277 6.84076 226.035 5.40745 235.868 5.78245" fill="white"/>
<path d="M160.423 275.589C168.048 279.223 175.123 282.014 182.465 284.164C191.365 286.781 200.59 287.164 209.723 288.314C223.465 290.048 237.173 291.948 251.048 292.148C255.682 292.214 260.14 290.823 264.848 291.014C286.557 291.873 307.157 286.506 327.282 279.014C330.44 277.848 333.765 276.531 335.882 273.548C334.94 271.823 333.257 271.448 331.74 270.906C317.582 265.848 303.39 260.881 289.24 255.789C276.007 251.023 262.823 246.114 249.59 241.331C247.682 240.639 245.273 240.314 243.74 241.323C239.623 244.006 234.807 244.381 230.448 246.123C212.69 253.206 194.998 260.464 177.357 267.831C171.873 270.123 166.098 271.906 160.423 275.589ZM357.098 193.256C357.098 178.089 357.107 162.923 357.098 147.756C357.09 139.689 363.573 133.056 371.515 133.023C373.848 133.014 376.173 133.006 378.507 133.014C386.582 133.039 390.998 137.298 390.84 145.381C390.482 163.189 392.282 180.948 391.998 198.756C391.907 204.181 390.882 209.506 392.415 215.273C393.565 219.598 391.94 225.564 390.29 229.973C388.532 234.706 388.007 239.764 388.29 243.881C389.065 255.373 382.773 263.131 376.873 271.339C367.873 283.848 355.94 293.048 342.848 300.881C339.557 302.856 335.848 303.681 332.248 304.681C315.498 309.348 298.982 314.556 281.107 314.248C273.607 314.114 265.94 313.473 258.507 314.089C239.048 315.706 219.598 314.781 200.157 314.689C185.065 314.623 170.582 311.031 157.415 303.089C151.398 299.464 144.607 297.423 138.882 293.023C132.407 288.064 126.598 282.364 120.848 276.731C117.323 273.281 115.357 267.889 115.182 262.589C114.982 256.298 113.548 250.364 111.498 244.473C110.923 242.806 110.99 240.856 111.057 239.039C111.515 226.364 111.14 213.681 111.648 200.998C111.94 193.789 110.74 186.356 111.082 179.022C111.573 168.256 112.273 157.489 113.198 146.756C113.665 141.314 120.065 135.439 125.632 135.139C130.615 134.873 135.632 134.948 140.623 135.214C145.215 135.456 149.773 143.548 147.715 147.639C147.157 148.764 146.998 149.814 146.982 150.964C146.89 156.031 147.665 161.006 148.798 165.914C149.29 168.047 147.223 169.273 147.19 170.906C146.998 180.898 146.265 190.998 147.44 200.848C147.932 204.981 148.798 209.189 148.798 213.414C148.807 216.989 145.99 220.939 150.632 223.748C151.015 223.973 151.082 225.698 150.682 226.081C147.007 229.581 150.357 234.798 147.432 238.756C146.515 239.998 148.615 243.498 149.398 245.948C149.59 246.539 150.407 247.189 150.273 247.573C148.323 253.139 152.073 251.264 154.257 250.423C165.29 246.239 176.257 241.864 187.24 237.523C197.607 233.431 207.932 229.239 218.315 225.206C225.923 222.239 227.132 220.689 227.115 212.823C227.09 197.656 226.948 182.498 227.065 167.331C227.098 162.306 224.332 157.831 225.307 152.531C227.773 139.223 224.24 125.873 224.94 112.481C225.448 102.806 235.082 92.4808 244.057 93.0225C249.015 93.3225 251.457 97.6392 255.107 100.006C258.415 102.148 260.873 105.364 262.373 109.131C262.665 109.873 263.098 111.039 262.757 111.473C258.807 116.548 264.332 120.656 263.998 125.031C263.69 129.014 263.498 133.248 262.123 137.164C261.915 137.756 261.023 138.398 261.148 138.798C264.598 149.656 259.582 160.339 260.64 171.264C261.715 182.331 260.423 193.614 261.19 204.731C261.498 209.339 263.165 213.956 263.032 218.748C263.007 219.656 263.64 220.614 264.407 220.623C269.848 220.698 273.773 225.581 279.39 225.214C282.057 225.039 284.382 226.648 286.832 227.548C305.123 234.248 323.407 240.964 341.773 247.431C344.648 248.439 347.54 249.906 351.157 247.806C355.748 245.139 357.365 242.073 357.215 236.748C356.807 222.264 357.073 207.756 357.073 193.256H357.098Z" fill="white"/>
<path d="M362.706 469.877C365.564 480.618 359.397 490.418 357.247 500.893C352.764 522.718 346.597 544.193 343.239 566.243C342.322 572.252 342.614 578.452 343.522 584.635C344.314 590.018 343.914 595.602 343.814 601.093C343.764 604.302 344.247 607.452 345.606 610.202C349.264 617.618 350.472 625.743 352.389 633.593C353.389 637.718 352.297 642.56 350.489 646.727C349.064 650.027 343.772 652.168 340.222 650.852C332.264 647.885 327.081 641.727 322.939 634.685C317.314 625.143 319.139 613.877 316.164 603.702C312.864 592.418 314.214 580.693 313.439 569.218C312.681 558.077 313.022 546.427 315.572 535.635C318.122 524.81 321.731 514.027 325.639 503.427C328.147 496.61 331.797 489.918 332.864 482.81C334.397 472.568 337.197 461.893 334.639 451.81C332.472 443.31 330.014 434.643 325.614 426.61C319.256 415.018 314.006 402.852 309.764 390.185C307.614 383.76 305.472 377.518 305.122 370.802C304.839 365.277 309.381 360.077 314.772 359.127C320.839 358.06 327.489 361.11 330.872 366.085C338.889 377.868 344.822 390.752 350.972 403.527C352.939 407.618 353.531 412.277 355.214 416.393C360.264 428.768 359.272 442.185 362.531 454.86C363.681 459.385 362.706 464.46 362.706 469.877Z" fill="white"/>
<path d="M291.002 475.215C290.735 485.948 292.51 498.057 287.752 509.423C285.035 515.915 283.827 522.857 280.918 529.282C278.852 533.857 277.585 538.865 276.527 543.798C275.018 550.798 273.693 557.873 272.91 564.973C271.102 581.448 276.227 596.973 280.202 612.59C281.443 617.465 283.785 622.348 284.385 627.098C285.193 633.39 285.577 640.398 281.66 646.39C278.318 651.498 268.368 652.415 263.685 647.931C256.027 640.606 250.927 631.781 248.418 621.465C246.635 614.165 245.185 606.74 242.835 599.632C240.535 592.715 241.052 586.023 242.485 579.19C242.618 578.54 242.993 577.89 242.935 577.265C241.952 565.29 246.877 554.115 247.56 542.215C248.227 530.457 251.868 518.707 255.468 507.348C257.202 501.898 259.718 496.515 261.877 491.082C263.843 486.132 262.943 481.057 263.443 476.098C263.743 473.207 262.927 469.857 263.093 466.748C263.727 455.44 259.76 445.123 255.96 434.898C252.477 425.557 248.218 416.59 245.76 406.773C244.135 400.315 241.452 393.923 238.56 387.69C235.36 380.798 232.235 373.523 233.052 365.332C233.727 358.615 238.427 355.782 244.835 357.932C251.868 360.298 255.393 365.632 258.76 371.507C264.777 381.982 270.327 392.682 275.568 403.582C279.735 412.24 282.11 421.373 285.477 430.215C289.652 441.148 291.752 452.365 291.035 464.098C290.827 467.415 291.002 470.765 291.002 475.215Z" fill="white"/>
<path d="M211.436 473.799C209.994 486.491 207.786 499.174 207.402 511.899C207.161 519.882 204.494 527.316 204.352 535.382C204.219 542.732 202.927 550.632 199.827 557.999C197.619 563.274 197.327 569.516 196.986 575.374C196.527 583.182 196.727 591.024 196.886 598.857C196.994 603.799 198.444 608.332 201.577 612.374C204.052 615.566 202.469 620.116 204.727 623.582C205.269 624.416 205.327 625.674 205.894 626.732C209.219 632.924 206.952 639.066 200.144 642.816C195.636 645.291 190.677 643.207 187.244 637.257C184.686 632.841 179.611 630.432 177.961 625.266C172.894 609.366 167.769 593.791 169.777 576.374C171.627 560.349 174.552 544.566 176.952 528.666C178.661 517.316 180.094 505.849 181.036 494.441C181.977 482.907 184.102 471.416 183.269 459.682C182.202 444.691 178.119 430.741 170.877 417.699C165.477 407.982 161.619 397.582 157.011 387.524C154.469 381.982 152.561 376.282 150.844 370.491C149.327 365.399 150.944 361.024 155.894 359.466C159.444 358.349 163.636 357.957 166.986 361.466C173.027 367.782 178.594 374.391 182.944 382.041C185.686 386.882 189.586 391.099 192.094 396.041C195.311 402.366 198.227 408.974 198.902 416.191C199.086 418.166 200.327 419.499 200.761 421.216C204.177 434.724 207.727 448.199 210.769 461.791C211.619 465.599 210.894 469.757 210.894 473.749C211.077 473.766 211.261 473.782 211.436 473.799Z" fill="white"/>
</svg>
